<svg width="1063" height="841" viewBox="0 0 1063 841" fill="none" xmlns="http://www.w3.org/2000/svg">
<mask id="path-1-inside-1_757_66420" fill="white">
<path fill-rule="evenodd" clip-rule="evenodd" d="M272.154 0.649658C204.003 0.649658 148.756 55.8968 148.756 124.048V284.917C148.756 284.974 148.756 285.031 148.757 285.088V494.561C148.757 563.67 148.757 598.225 162.206 624.621C174.037 647.84 192.914 666.717 216.133 678.548C242.529 691.998 277.084 691.998 346.193 691.998H716.807C785.916 691.998 820.471 691.998 846.867 678.548C870.086 666.717 888.964 647.84 900.794 624.621C914.244 598.225 914.244 563.67 914.244 494.561V270.372C914.244 201.263 914.244 166.708 900.794 140.312C888.964 117.093 870.086 98.2155 846.867 86.3849C820.471 72.9354 785.916 72.9354 716.807 72.9354H633.984C570.292 72.9354 509.105 0.649658 445.414 0.649658V0.649658H272.154Z"/>
</mask>
<path fill-rule="evenodd" clip-rule="evenodd" d="M272.154 0.649658C204.003 0.649658 148.756 55.8968 148.756 124.048V284.917C148.756 284.974 148.756 285.031 148.757 285.088V494.561C148.757 563.67 148.757 598.225 162.206 624.621C174.037 647.84 192.914 666.717 216.133 678.548C242.529 691.998 277.084 691.998 346.193 691.998H716.807C785.916 691.998 820.471 691.998 846.867 678.548C870.086 666.717 888.964 647.84 900.794 624.621C914.244 598.225 914.244 563.67 914.244 494.561V270.372C914.244 201.263 914.244 166.708 900.794 140.312C888.964 117.093 870.086 98.2155 846.867 86.3849C820.471 72.9354 785.916 72.9354 716.807 72.9354H633.984C570.292 72.9354 509.105 0.649658 445.414 0.649658V0.649658H272.154Z" fill="#D9D9D9"/>
<path fill-rule="evenodd" clip-rule="evenodd" d="M272.154 0.649658C204.003 0.649658 148.756 55.8968 148.756 124.048V284.917C148.756 284.974 148.756 285.031 148.757 285.088V494.561C148.757 563.67 148.757 598.225 162.206 624.621C174.037 647.84 192.914 666.717 216.133 678.548C242.529 691.998 277.084 691.998 346.193 691.998H716.807C785.916 691.998 820.471 691.998 846.867 678.548C870.086 666.717 888.964 647.84 900.794 624.621C914.244 598.225 914.244 563.67 914.244 494.561V270.372C914.244 201.263 914.244 166.708 900.794 140.312C888.964 117.093 870.086 98.2155 846.867 86.3849C820.471 72.9354 785.916 72.9354 716.807 72.9354H633.984C570.292 72.9354 509.105 0.649658 445.414 0.649658V0.649658H272.154Z" fill="url(#paint0_radial_757_66420)"/>
<path d="M148.757 285.088H153.692V285.079L153.692 285.071L148.757 285.088ZM162.206 624.621L166.604 622.38L166.604 622.38L162.206 624.621ZM216.133 678.548L218.374 674.15L218.374 674.15L216.133 678.548ZM846.867 678.548L844.626 674.15L844.626 674.15L846.867 678.548ZM900.794 624.621L896.396 622.38L896.396 622.38L900.794 624.621ZM900.794 140.312L896.396 142.553L896.396 142.553L900.794 140.312ZM846.867 86.3849L844.626 90.7829L844.626 90.7829L846.867 86.3849ZM153.692 124.048C153.692 58.6229 206.729 5.58557 272.154 5.58557V-4.28626C201.277 -4.28626 143.82 53.1708 143.82 124.048H153.692ZM153.692 284.917V124.048H143.82V284.917H153.692ZM153.692 285.071C153.692 285.02 153.692 284.968 153.692 284.917H143.82C143.82 284.979 143.82 285.042 143.821 285.104L153.692 285.071ZM153.692 494.561V285.088H143.821V494.561H153.692ZM166.604 622.38C160.293 609.994 157.014 595.478 155.357 575.207C153.696 554.877 153.692 529.197 153.692 494.561H143.821C143.821 529.034 143.817 555.186 145.518 576.01C147.224 596.893 150.67 612.852 157.808 626.862L166.604 622.38ZM218.374 674.15C196.084 662.793 177.961 644.67 166.604 622.38L157.808 626.862C170.112 651.01 189.745 670.642 213.892 682.946L218.374 674.15ZM346.193 687.062C311.557 687.062 285.877 687.058 265.548 685.397C245.276 683.741 230.76 680.461 218.374 674.15L213.892 682.946C227.902 690.084 243.862 693.53 264.744 695.236C285.568 696.937 311.72 696.933 346.193 696.933V687.062ZM716.807 687.062H346.193V696.933H716.807V687.062ZM844.626 674.15C832.24 680.461 817.724 683.741 797.453 685.397C777.123 687.058 751.443 687.062 716.807 687.062V696.933C751.28 696.933 777.432 696.937 798.257 695.236C819.139 693.53 835.098 690.084 849.108 682.946L844.626 674.15ZM896.396 622.38C885.039 644.67 866.916 662.793 844.626 674.15L849.108 682.946C873.256 670.642 892.888 651.01 905.192 626.862L896.396 622.38ZM909.308 494.561C909.308 529.197 909.304 554.877 907.643 575.207C905.987 595.478 902.707 609.994 896.396 622.38L905.192 626.862C912.33 612.852 915.776 596.893 917.482 576.01C919.183 555.186 919.18 529.034 919.18 494.561H909.308ZM909.308 270.372V494.561H919.18V270.372H909.308ZM896.396 142.553C902.707 154.939 905.987 169.455 907.643 189.726C909.304 210.056 909.308 235.736 909.308 270.372H919.18C919.18 235.899 919.183 209.747 917.482 188.923C915.776 168.04 912.33 152.081 905.192 138.071L896.396 142.553ZM844.626 90.7829C866.916 102.14 885.039 120.263 896.396 142.553L905.192 138.071C892.888 113.923 873.256 94.2908 849.108 81.987L844.626 90.7829ZM716.807 77.8713C751.443 77.8713 777.123 77.8751 797.453 79.5361C817.724 81.1923 832.24 84.4717 844.626 90.7829L849.108 81.987C835.098 74.8486 819.139 71.4032 798.256 69.697C777.432 67.9956 751.28 67.9994 716.807 67.9994V77.8713ZM633.984 77.8713H716.807V67.9994H633.984V77.8713ZM272.154 5.58557H445.414V-4.28626H272.154V5.58557ZM633.984 67.9994C603.726 67.9994 573.726 50.7858 542.171 32.5207C511.286 14.643 478.847 -4.28626 445.414 -4.28626V5.58557C475.671 5.58557 505.671 22.7992 537.226 41.0644C568.111 58.942 600.55 77.8713 633.984 77.8713V67.9994Z" fill="url(#paint1_linear_757_66420)" mask="url(#path-1-inside-1_757_66420)"/>
<path d="M148.757 285.088H153.692V285.079L153.692 285.071L148.757 285.088ZM162.206 624.621L166.604 622.38L166.604 622.38L162.206 624.621ZM216.133 678.548L218.374 674.15L218.374 674.15L216.133 678.548ZM846.867 678.548L844.626 674.15L844.626 674.15L846.867 678.548ZM900.794 624.621L896.396 622.38L896.396 622.38L900.794 624.621ZM900.794 140.312L896.396 142.553L896.396 142.553L900.794 140.312ZM846.867 86.3849L844.626 90.7829L844.626 90.7829L846.867 86.3849ZM153.692 124.048C153.692 58.6229 206.729 5.58557 272.154 5.58557V-4.28626C201.277 -4.28626 143.82 53.1708 143.82 124.048H153.692ZM153.692 284.917V124.048H143.82V284.917H153.692ZM153.692 285.071C153.692 285.02 153.692 284.968 153.692 284.917H143.82C143.82 284.979 143.82 285.042 143.821 285.104L153.692 285.071ZM153.692 494.561V285.088H143.821V494.561H153.692ZM166.604 622.38C160.293 609.994 157.014 595.478 155.357 575.207C153.696 554.877 153.692 529.197 153.692 494.561H143.821C143.821 529.034 143.817 555.186 145.518 576.01C147.224 596.893 150.67 612.852 157.808 626.862L166.604 622.38ZM218.374 674.15C196.084 662.793 177.961 644.67 166.604 622.38L157.808 626.862C170.112 651.01 189.745 670.642 213.892 682.946L218.374 674.15ZM346.193 687.062C311.557 687.062 285.877 687.058 265.548 685.397C245.276 683.741 230.76 680.461 218.374 674.15L213.892 682.946C227.902 690.084 243.862 693.53 264.744 695.236C285.568 696.937 311.72 696.933 346.193 696.933V687.062ZM716.807 687.062H346.193V696.933H716.807V687.062ZM844.626 674.15C832.24 680.461 817.724 683.741 797.453 685.397C777.123 687.058 751.443 687.062 716.807 687.062V696.933C751.28 696.933 777.432 696.937 798.257 695.236C819.139 693.53 835.098 690.084 849.108 682.946L844.626 674.15ZM896.396 622.38C885.039 644.67 866.916 662.793 844.626 674.15L849.108 682.946C873.256 670.642 892.888 651.01 905.192 626.862L896.396 622.38ZM909.308 494.561C909.308 529.197 909.304 554.877 907.643 575.207C905.987 595.478 902.707 609.994 896.396 622.38L905.192 626.862C912.33 612.852 915.776 596.893 917.482 576.01C919.183 555.186 919.18 529.034 919.18 494.561H909.308ZM909.308 270.372V494.561H919.18V270.372H909.308ZM896.396 142.553C902.707 154.939 905.987 169.455 907.643 189.726C909.304 210.056 909.308 235.736 909.308 270.372H919.18C919.18 235.899 919.183 209.747 917.482 188.923C915.776 168.04 912.33 152.081 905.192 138.071L896.396 142.553ZM844.626 90.7829C866.916 102.14 885.039 120.263 896.396 142.553L905.192 138.071C892.888 113.923 873.256 94.2908 849.108 81.987L844.626 90.7829ZM716.807 77.8713C751.443 77.8713 777.123 77.8751 797.453 79.5361C817.724 81.1923 832.24 84.4717 844.626 90.7829L849.108 81.987C835.098 74.8486 819.139 71.4032 798.256 69.697C777.432 67.9956 751.28 67.9994 716.807 67.9994V77.8713ZM633.984 77.8713H716.807V67.9994H633.984V77.8713ZM272.154 5.58557H445.414V-4.28626H272.154V5.58557ZM633.984 67.9994C603.726 67.9994 573.726 50.7858 542.171 32.5207C511.286 14.643 478.847 -4.28626 445.414 -4.28626V5.58557C475.671 5.58557 505.671 22.7992 537.226 41.0644C568.111 58.942 600.55 77.8713 633.984 77.8713V67.9994Z" fill="url(#paint2_linear_757_66420)" mask="url(#path-1-inside-1_757_66420)"/>
<g filter="url(#filter0_f_757_66420)">
<rect x="148.757" y="173.023" width="765.487" height="518.974" rx="123.398" fill="black" fill-opacity="0.46"/>
</g>
<path d="M148.756 371.345C148.756 302.142 148.274 266.181 161.731 239.748C173.568 216.498 192.25 197.844 215.482 185.998C241.892 172.53 277.932 173.023 347.079 173.023H715.921C785.068 173.023 821.108 172.53 847.518 185.998C870.75 197.844 889.432 216.498 901.269 239.748C914.726 266.181 914.244 302.142 914.244 371.345V493.675C914.244 562.878 914.726 598.84 901.269 625.272C889.432 648.522 870.75 667.177 847.518 679.023C821.108 692.491 785.068 691.997 715.921 691.997H347.079C277.932 691.997 241.892 692.491 215.482 679.023C192.25 667.177 173.568 648.522 161.731 625.272C148.274 598.84 148.756 562.878 148.756 493.675V371.345Z" fill="url(#paint3_radial_757_66420)"/>
<path d="M347.079 175.491H715.921C718.306 175.491 720.65 175.491 722.956 175.49C754.124 175.482 778.159 175.476 797.563 176.921C818.381 178.471 833.616 181.679 846.397 188.196C869.166 199.807 887.47 218.084 899.07 240.868C905.583 253.661 908.79 268.883 910.342 289.691C911.79 309.116 911.784 333.188 911.777 364.448C911.776 366.709 911.776 369.008 911.776 371.346V493.675C911.776 496.012 911.776 498.311 911.777 500.572C911.784 531.832 911.79 555.905 910.342 575.329C908.79 596.137 905.583 611.36 899.07 624.152C887.47 646.937 869.166 665.214 846.397 676.825C833.616 683.342 818.381 686.55 797.563 688.1C778.159 689.544 754.125 689.538 722.956 689.531C720.65 689.53 718.306 689.53 715.921 689.53H347.079C344.694 689.53 342.35 689.53 340.044 689.531C308.875 689.538 284.841 689.544 265.437 688.1C244.619 686.55 229.384 683.342 216.603 676.825C193.834 665.214 175.53 646.937 163.93 624.152C157.417 611.36 154.21 596.137 152.658 575.329C151.21 555.905 151.216 531.833 151.223 500.574C151.224 498.312 151.224 496.013 151.224 493.675V371.346C151.224 369.008 151.224 366.709 151.223 364.447C151.216 333.188 151.21 309.115 152.658 289.691C154.21 268.883 157.417 253.661 163.93 240.868C175.53 218.084 193.834 199.807 216.603 188.196C229.384 181.679 244.619 178.471 265.437 176.921C284.841 175.476 308.875 175.482 340.044 175.49C342.35 175.491 344.694 175.491 347.079 175.491Z" stroke="url(#paint4_linear_757_66420)" stroke-width="4.93591"/>
<g filter="url(#filter1_d_757_66420)">
<path fill-rule="evenodd" clip-rule="evenodd" d="M405.521 276.236H374.906C337.667 276.952 318.868 302.018 318.51 351.432C319.226 400.846 338.741 425.732 377.055 426.09H405.521V276.236ZM515.177 584H351.811C353.959 575.048 358.793 570.214 366.312 569.498H405.521V442.203H361.479C299.532 442.203 260.681 422.688 244.926 383.658C240.271 372.558 237.943 360.204 237.943 346.598C237.943 312.939 252.982 288.769 283.061 274.088C300.248 265.852 320.658 261.734 344.291 261.734H515.177H523.686H783.731L785.88 367.545H770.304L758.487 327.799C758.487 327.441 758.308 327.083 757.95 326.725C747.566 293.066 726.261 276.236 694.034 276.236H633.341V409.977H736.466V426.09H633.341V569.498H696.72V584H523.686H515.177ZM515.177 569.498H523.686H558.146V276.236H523.686H515.177H480.717V569.498H515.177Z" fill="white" fill-opacity="0.97" shape-rendering="crispEdges"/>
</g>
<defs>
<filter id="filter0_f_757_66420" x="0.679153" y="24.9459" width="1061.64" height="815.129" filterUnits="userSpaceOnUse" color-interpolation-filters="sRGB">
<feFlood flood-opacity="0" result="BackgroundImageFix"/>
<feBlend mode="normal" in="SourceGraphic" in2="BackgroundImageFix" result="shape"/>
<feGaussianBlur stdDeviation="74.0387" result="effect1_foregroundBlur_757_66420"/>
</filter>
<filter id="filter1_d_757_66420" x="199.943" y="237.734" width="607.937" height="382.266" filterUnits="userSpaceOnUse" color-interpolation-filters="sRGB">
<feFlood flood-opacity="0" result="BackgroundImageFix"/>
<feColorMatrix in="SourceAlpha" type="matrix" values="0 0 0 0 0 0 0 0 0 0 0 0 0 0 0 0 0 0 127 0" result="hardAlpha"/>
<feOffset dx="-8" dy="6"/>
<feGaussianBlur stdDeviation="15"/>
<feComposite in2="hardAlpha" operator="out"/>
<feColorMatrix type="matrix" values="0 0 0 0 0 0 0 0 0 0 0 0 0 0 0 0 0 0 0.4 0"/>
<feBlend mode="normal" in2="BackgroundImageFix" result="effect1_dropShadow_757_66420"/>
<feBlend mode="normal" in="SourceGraphic" in2="effect1_dropShadow_757_66420" result="shape"/>
</filter>
<radialGradient id="paint0_radial_757_66420" cx="0" cy="0" r="1" gradientUnits="userSpaceOnUse" gradientTransform="translate(914.244 692.765) rotate(-135.976) scale(1030.24 1100.66)">
<stop stop-color="#0068E7"/>
<stop offset="1" stop-color="#158DEF"/>
</radialGradient>
<linearGradient id="paint1_linear_757_66420" x1="148.756" y1="0.649658" x2="888.584" y2="753.771" gradientUnits="userSpaceOnUse">
<stop offset="0.508799" stop-color="#85BFF8"/>
<stop offset="1" stop-color="#1050A9"/>
</linearGradient>
<linearGradient id="paint2_linear_757_66420" x1="148.756" y1="0.649658" x2="1004.18" y2="591.355" gradientUnits="userSpaceOnUse">
<stop offset="0.228092" stop-color="#85BFF8"/>
<stop offset="0.99027" stop-color="#0567E4"/>
</linearGradient>
<radialGradient id="paint3_radial_757_66420" cx="0" cy="0" r="1" gradientUnits="userSpaceOnUse" gradientTransform="translate(914.246 692) rotate(-145.864) scale(924.833 1146.25)">
<stop stop-color="#0164E3"/>
<stop offset="1" stop-color="#3394F0"/>
<stop offset="1" stop-color="#3394F0"/>
</radialGradient>
<linearGradient id="paint4_linear_757_66420" x1="148.754" y1="173.021" x2="832.35" y2="802.553" gradientUnits="userSpaceOnUse">
<stop offset="0.228092" stop-color="#85BFF8"/>
<stop offset="0.946844" stop-color="#0567E4"/>
</linearGradient>
</defs>
</svg>
